HIERARCHY
ROOT Hips
{
 OFFSET 0.000000 0.000000 0.000000
 CHANNELS 6 Xposition Yposition Zposition Yrotation Xrotation Zrotation
 JOINT Chest
 {
  OFFSET 0.000000 9.585900 0.002600
  CHANNELS 3 Yrotation Xrotation Zrotation
  JOINT Chest2
  {
   OFFSET 0.000000 9.601200 -0.005300
   CHANNELS 3 Yrotation Xrotation Zrotation
   JOINT Chest3
   {
    OFFSET 0.000000 9.561800 0.000000
    CHANNELS 3 Yrotation Xrotation Zrotation
    JOINT Chest4
    {
     OFFSET 0.000000 9.552100 0.000000
     CHANNELS 3 Yrotation Xrotation Zrotation
     JOINT Neck
     {
      OFFSET 0.000000 14.453000 0.000000
      CHANNELS 3 Yrotation Xrotation Zrotation
      JOINT Head
      {
       OFFSET 0.000000 8.936500 -0.011300
       CHANNELS 3 Yrotation Xrotation Zrotation
       End Site
       {
        OFFSET 0.000000 17.073600 -0.006000
       }
      }
     }
     JOINT RightCollar
     {
      OFFSET -2.921100 9.558500 0.000000
      CHANNELS 3 Yrotation Xrotation Zrotation
      JOINT RightShoulder
      {
       OFFSET -13.519700 0.000000 0.000000
       CHANNELS 3 Yrotation Xrotation Zrotation
       JOINT RightElbow
       {
        OFFSET 0.000000 -29.696600 0.000000
        CHANNELS 3 Yrotation Xrotation Zrotation
        JOINT RightWrist
        {
         OFFSET 0.000000 -24.004700 0.000000
         CHANNELS 3 Yrotation Xrotation Zrotation
         End Site
         {
          OFFSET 0.000000 -17.728500 0.000000
         }
        }
       }
      }
     }
     JOINT LeftCollar
     {
      OFFSET 2.921100 9.558500 0.000000
      CHANNELS 3 Yrotation Xrotation Zrotation
      JOINT LeftShoulder
      {
       OFFSET 13.519700 0.000000 0.000000
       CHANNELS 3 Yrotation Xrotation Zrotation
       JOINT LeftElbow
       {
        OFFSET 0.000000 -29.696600 0.000000
        CHANNELS 3 Yrotation Xrotation Zrotation
        JOINT LeftWrist
        {
         OFFSET 0.000000 -24.004700 0.000000
         CHANNELS 3 Yrotation Xrotation Zrotation
         End Site
         {
          OFFSET 0.000000 -17.728500 0.000000
         }
        }
       }
      }
     }
    }
   }
  }
 }
 JOINT RightHip
 {
  OFFSET -7.771700 -0.012900 -0.001300
  CHANNELS 3 Yrotation Xrotation Zrotation
  JOINT RightKnee
  {
   OFFSET 0.000000 -40.869800 0.001200
   CHANNELS 3 Yrotation Xrotation Zrotation
   JOINT RightAnkle
   {
    OFFSET 0.000000 -39.717900 0.002100
    CHANNELS 3 Yrotation Xrotation Zrotation
    JOINT RightToe
    {
     OFFSET 0.000000 -4.965400 11.033500
     CHANNELS 3 Yrotation Xrotation Zrotation
     End Site
     {
      OFFSET 0.000000 -1.423100 5.872300
     }
    }
   }
  }
 }
 JOINT LeftHip
 {
  OFFSET 7.771700 -0.012900 -0.001300
  CHANNELS 3 Yrotation Xrotation Zrotation
  JOINT LeftKnee
  {
   OFFSET 0.000000 -40.869800 0.001200
   CHANNELS 3 Yrotation Xrotation Zrotation
   JOINT LeftAnkle
   {
    OFFSET 0.000000 -39.717900 0.002100
    CHANNELS 3 Yrotation Xrotation Zrotation
    JOINT LeftToe
    {
     OFFSET 0.000000 -4.965400 11.033500
     CHANNELS 3 Yrotation Xrotation Zrotation
     End Site
     {
      OFFSET 0.000000 -1.423100 5.872300
     }
    }
   }
  }
 }
}
MOTION
Frames: 12
Frame Time: 0.008333
-92.303853 62.116637 18.367771 173.242920 -49.475906 -0.687028 4.895352 26.053470 1.391201 0.688027 4.336577 0.199553 1.135806 6.823012 0.317428 3.748424 21.231138 1.521328 -0.424394 16.568963 1.326124 -1.249382 -5.004917 2.606643 5.205389 4.006302 4.690121 -3.923266 -7.728681 -14.424121 -122.070311 -63.332680 155.868759 13.073327 -0.230858 -5.058264 -7.497711 2.036010 0.537953 -1.277940 -3.256835 14.739854 120.414030 -69.019826 -148.374654 6.334922 4.224922 3.135298 3.179298 -17.822056 -3.825483 -1.678043 60.665681 -4.871163 2.179374 -6.341073 9.765226 0.226716 -0.539043 0.104857 -3.556625 -13.937827 4.513786 30.670676 75.587895 32.866683 1.449424 -11.549022 -5.615951 0.274045 0.771690 0.110969
-92.303841 62.116558 18.366797 173.264245 -49.490216 -0.707455 4.897811 26.043597 1.395173 0.689417 4.331334 0.198571 1.137024 6.814546 0.317658 3.755594 21.219940 1.521361 -0.434526 16.604563 1.341115 -1.268075 -4.947416 2.631945 5.180273 4.074212 4.717563 -3.907308 -7.800538 -14.436414 -117.725863 -63.364514 152.263660 12.249379 -0.333312 -4.742954 -7.482933 2.081344 0.539086 -1.291288 -3.276828 14.735053 120.401755 -69.020362 -148.357385 6.373633 4.167511 3.144685 3.168996 -17.807180 -3.819783 -1.685259 60.666943 -4.875571 2.180427 -6.330243 9.764108 0.226632 -0.549179 0.106369 -3.572158 -13.925811 4.512585 30.688827 75.588061 32.891803 1.450103 -11.546644 -5.619438 0.267748 0.769056 0.111015
-92.304348 62.115872 18.366513 173.269168 -49.499439 -0.714307 4.911482 26.028002 1.398527 0.695350 4.311913 0.193801 1.131319 6.830139 0.325307 3.768436 21.198705 1.517397 -0.448929 16.648713 1.362253 -1.283344 -4.906767 2.651602 5.145222 4.144365 4.748449 -3.901371 -7.880938 -14.448357 -112.812156 -63.193197 148.209900 11.276286 -0.455268 -4.360813 -7.473946 2.126402 0.533417 -1.315562 -3.278812 14.751319 120.399078 -69.019893 -148.353338 6.434448 4.094941 3.163211 3.166486 -17.798126 -3.818644 -1.694206 60.667247 -4.878619 2.186628 -6.327289 9.760651 0.225686 -0.550046 0.106803 -3.574975 -13.918591 4.509291 30.711561 75.586859 32.919369 1.465854 -11.544018 -5.625773 0.251030 0.768264 0.114284
-92.306032 62.115450 18.366120 173.272607 -49.509914 -0.714664 4.923923 26.012846 1.396039 0.689779 4.322818 0.198348 1.140058 6.804773 0.318687 3.778309 21.186502 1.516922 -0.456680 16.686671 1.380895 -1.313463 -4.838809 2.686281 5.117927 4.204386 4.779497 -3.917309 -7.959065 -14.460388 -107.537919 -62.724863 143.928599 10.222332 -0.561028 -3.954581 -7.447705 2.159041 0.517547 -1.338185 -3.284803 14.762289 120.271383 -68.965884 -148.226484 6.449658 4.062122 3.164666 3.165349 -17.786616 -3.821261 -1.687216 60.667619 -4.873329 2.186237 -6.330288 9.760359 0.224879 -0.540082 0.106207 -3.574110 -13.909142 4.501542 30.733109 75.584653 32.945901 1.465753 -11.545757 -5.624616 0.298490 0.772172 0.112565
-92.308177 62.115063 18.365977 173.275148 -49.519357 -0.713619 4.931835 26.002342 1.392743 0.708745 4.278643 0.186398 1.131959 6.817423 0.325451 3.782189 21.184168 1.518934 -0.463797 16.717284 1.393491 -1.347563 -4.745861 2.734214 5.096696 4.264698 4.810018 -3.939876 -8.047373 -14.478343 -102.223378 -61.990950 139.700368 9.044127 -0.695317 -3.521716 -7.416876 2.194491 0.518706 -1.301622 -3.314586 14.729349 120.053398 -68.950890 -148.079394 6.479267 3.997214 3.174477 3.164464 -17.776865 -3.823906 -1.687577 60.668782 -4.876128 2.188161 -6.333903 9.760527 0.223903 -0.536310 0.106828 -3.573482 -13.899654 4.493780 30.741532 75.582535 32.960703 1.458428 -11.549798 -5.625841 0.280274 0.775587 0.116239
-92.309673 62.114856 18.366195 173.271569 -49.528455 -0.713988 4.949819 25.985196 1.395680 0.705869 4.280315 0.187640 1.136063 6.802214 0.321741 3.787246 21.173269 1.516276 -0.471400 16.759092 1.413702 -1.374807 -4.683426 2.768922 5.066777 4.341174 4.847865 -3.950946 -8.162841 -14.513147 -97.148128 -61.066215 135.774771 7.654834 -0.908736 -3.052577 -7.378945 2.222181 0.524512 -1.302219 -3.317748 14.714025 119.870154 -68.917807 -147.932519 6.526000 3.915392 3.195348 3.165763 -17.767366 -3.820292 -1.681344 60.667917 -4.872763 2.187983 -6.336324 9.762870 0.220488 -0.533330 0.105631 -3.571999 -13.889966 4.493145 30.770116 75.580839 32.993573 1.446736 -11.557221 -5.626799 0.275835 0.779720 0.117945
-92.311543 62.114981 18.366550 173.283553 -49.538310 -0.726111 4.960640 25.964049 1.397262 0.694134 4.302795 0.195791 1.143136 6.782610 0.315969 3.793058 21.155897 1.510145 -0.482043 16.790536 1.431327 -1.385274 -4.644488 2.788648 5.053072 4.390508 4.878032 -3.974875 -8.262787 -14.549129 -92.429456 -60.010860 132.252315 6.017356 -1.224245 -2.535650 -7.345055 2.244513 0.536400 -1.296226 -3.324740 14.689138 119.675730 -68.883829 -147.775698 6.578429 3.830381 3.230400 3.160692 -17.752712 -3.818536 -1.671669 60.662216 -4.861555 2.182196 -6.343513 9.764782 0.217940 -0.524716 0.104061 -3.581269 -13.879851 4.489816 30.786062 75.575825 33.017884 1.436737 -11.558629 -5.631904 0.289125 0.782958 0.119633
-92.313386 62.116543 18.366244 173.297279 -49.557034 -0.741229 4.961263 25.970769 1.402719 0.702343 4.285727 0.192024 1.139371 6.778789 0.313117 3.795522 21.166175 1.518171 -0.489334 16.800347 1.436297 -1.396516 -4.608625 2.809390 5.046201 4.418876 4.893975 -3.986064 -8.371361 -14.588141 -88.101351 -58.837840 129.149825 4.187474 -1.594144 -1.941752 -7.326793 2.254196 0.542812 -1.267002 -3.347646 14.657881 119.541476 -68.886440 -147.690407 6.676571 3.729466 3.296202 3.159424 -17.728334 -3.816151 -1.670775 60.656401 -4.854028 2.180447 -6.345874 9.767408 0.223705 -0.524212 0.101732 -3.591390 -13.860959 4.487896 30.814840 75.571572 33.049423 1.439715 -11.556371 -5.634466 0.289881 0.782362 0.120554
-92.316935 62.116161 18.367917 173.299884 -49.558559 -0.740900 4.963757 25.961356 1.397513 0.707402 4.270474 0.186627 1.136857 6.767596 0.308465 3.801305 21.182085 1.530887 -0.515984 16.798913 1.440255 -1.409446 -4.542088 2.843289 5.022213 4.486851 4.894755 -3.957643 -8.530738 -14.614270 -84.124133 -57.483060 126.429200 2.359398 -1.918515 -1.255146 -7.307745 2.262618 0.548038 -1.235290 -3.371885 14.626546 119.285228 -68.846956 -147.459407 6.721692 3.650096 3.350990 3.160671 -17.723814 -3.821877 -1.658807 60.650288 -4.842246 2.180397 -6.350003 9.768122 0.222498 -0.518264 0.102497 -3.591201 -13.859682 4.478646 30.817085 75.564087 33.054304 1.452108 -11.551334 -5.636037 0.278123 0.785193 0.122059
-92.320481 62.115913 18.369993 173.298830 -49.558884 -0.739418 4.967400 25.943421 1.385791 0.708331 4.266052 0.186049 1.135415 6.775979 0.315873 3.806636 21.158663 1.518869 -0.530873 16.826600 1.461026 -1.433551 -4.494539 2.874596 5.013125 4.536283 4.910737 -3.916611 -8.675126 -14.645504 -80.476440 -55.901720 124.053323 0.724412 -2.125997 -0.482072 -7.224718 2.272241 0.562351 -1.266871 -3.377949 14.599694 119.004158 -68.812649 -147.194335 6.771901 3.562737 3.418670 3.162774 -17.721223 -3.825040 -1.647828 60.643561 -4.833675 2.181662 -6.350720 9.772053 0.217847 -0.514057 0.101334 -3.588262 -13.859494 4.471089 30.813849 75.559144 33.058060 1.450951 -11.549458 -5.634984 0.280604 0.787550 0.119595
-92.327633 62.115797 18.371909 173.312942 -49.558173 -0.728791 4.949085 25.916740 1.344800 0.706951 4.273067 0.193841 1.136625 6.783234 0.320856 3.806712 21.121247 1.499458 -0.541849 16.871267 1.486942 -1.502803 -4.433282 2.936036 5.007527 4.599638 4.929639 -3.841456 -8.839142 -14.672941 -77.222393 -54.169886 122.030725 -0.683956 -2.197647 0.381153 -7.186788 2.307050 0.580744 -1.250412 -3.392310 14.571308 118.744867 -68.796078 -146.952185 6.848485 3.460493 3.515672 3.162068 -17.718474 -3.849545 -1.644950 60.637709 -4.829551 2.157321 -6.338941 9.767367 0.240138 -0.519608 0.109050 -3.591324 -13.861735 4.445796 30.801332 75.555650 33.048860 1.424544 -11.566644 -5.643091 0.312462 0.806708 0.133535
-92.330899 62.116247 18.374247 173.318475 -49.559279 -0.735312 4.946846 25.910705 1.341401 0.710666 4.265008 0.191367 1.135748 6.768669 0.312407 3.811453 21.128318 1.506360 -0.563153 16.888741 1.501185 -1.553726 -4.395166 2.976656 4.987835 4.648385 4.917898 -3.733121 -9.034966 -14.681278 -74.394336 -52.403081 120.357716 -1.899103 -2.152036 1.323473 -7.155983 2.307450 0.593698 -1.229823 -3.400021 14.542072 118.483899 -68.780680 -146.706126 6.936471 3.353190 3.633235 3.164250 -17.715367 -3.849264 -1.651765 60.632613 -4.832003 2.155558 -6.336189 9.769784 0.243684 -0.521347 0.109294 -3.594361 -13.860977 4.444390 30.775389 75.553961 33.028686 1.424500 -11.561921 -5.646414 0.318482 0.806797 0.137128
